<svg width="1024" height="1024" viewBox="0 0 1024 1024" fill="none" xmlns="http://www.w3.org/2000/svg">
  <defs>
    <linearGradient id="bg" x1="160" y1="120" x2="860" y2="920" gradientUnits="userSpaceOnUse">
      <stop offset="0" stop-color="#5C2BC0"/>
      <stop offset="1" stop-color="#D81B60"/>
    </linearGradient>
    <linearGradient id="shieldGrad" x1="300" y1="260" x2="740" y2="760" gradientUnits="userSpaceOnUse">
      <stop offset="0" stop-color="#FFFFFF"/>
      <stop offset="1" stop-color="#F4EEFF"/>
    </linearGradient>
    <filter id="softShadow" x="160" y="170" width="704" height="704" filterUnits="userSpaceOnUse" color-interpolation-filters="sRGB">
      <feFlood flood-opacity="0" result="BackgroundImageFix"/>
      <feColorMatrix in="SourceAlpha" type="matrix" values="0 0 0 0 0 0 0 0 0 0 0 0 0 0 0 0 0 0 127 0" result="hardAlpha"/>
      <feOffset dy="20"/>
      <feGaussianBlur stdDeviation="20"/>
      <feComposite in2="hardAlpha" operator="out"/>
      <feColorMatrix type="matrix" values="0 0 0 0 0.22 0 0 0 0 0.1 0 0 0 0 0.45 0 0 0 0.25 0"/>
      <feBlend mode="normal" in2="BackgroundImageFix" result="effect1_dropShadow_1_1"/>
      <feBlend mode="normal" in="SourceGraphic" in2="effect1_dropShadow_1_1" result="shape"/>
    </filter>
  </defs>

  <rect x="64" y="64" width="896" height="896" rx="240" fill="url(#bg)"/>

  <circle cx="512" cy="512" r="340" fill="white" fill-opacity="0.12"/>
  <circle cx="512" cy="512" r="286" fill="white" fill-opacity="0.12"/>

  <g filter="url(#softShadow)">
    <path d="M512 220C613 287 705 286 796 286V524C796 662 677 778 512 838C347 778 228 662 228 524V286C319 286 411 287 512 220Z" fill="url(#shieldGrad)"/>
  </g>

  <path d="M415 563L522 384C530 371 548 369 559 381C568 391 569 406 561 417L481 564H585C601 564 611 577 604 591L514 771C506 787 485 789 474 775C466 766 465 753 472 742L542 612H436C421 612 410 598 415 583V563Z" fill="#4E2AB6"/>

  <circle cx="512" cy="512" r="338" stroke="white" stroke-opacity="0.28" stroke-width="8"/>
</svg>
